<svg id="Layer_1" data-name="Layer 1" xmlns="http://www.w3.org/2000/svg" xmlns:xlink="http://www.w3.org/1999/xlink" viewBox="0 0 508.66 217.89"><defs><style>.cls-1{fill:url(#linear-gradient);}</style><linearGradient id="linear-gradient" x1="15.91" y1="108.94" x2="524" y2="108.94" gradientUnits="userSpaceOnUse"><stop offset="0" stop-color="#9ce3ff"/><stop offset="0.5" stop-color="#9bb0ff"/><stop offset="1" stop-color="#da88ff"/></linearGradient></defs><path class="cls-1" d="M419.86,160.39,504.24,46.54V0H270.34l-18.8,83.66a317.94,317.94,0,0,0-5.82,35.09q-2.64,21.83-3.76,36.45h-1.13q-2.25-23.65-10.9-66.16l-18-89H130.71L111,87.89q-9.77,49.61-10.33,67.31H99.51q-1.32-28.47-9.59-71.54L72.63,0H.28L58.35,217.89h77.24l21.61-92.5q3.2-14,12.41-67.89h1.12l3.76,25.19L180.13,114l24.06,103.85h78.55l43-160.39h94.48L332.1,175v42.89H508.38v-57.5Z"/></svg>